<svg viewBox="0 0 24 24" xmlns="http://www.w3.org/2000/svg"><g fill="#fff"><path d="m0 0h24v24h-24z" opacity="0" transform="matrix(-1 0 0 -1 24 24)"/><path d="m5.23 10.64-.00000007-.00000008c.35249.42517.982908.484088 1.40808.131598.00064153-.00053187.0012824-.00106454.0019226-.001598l4.36-3.63v11.86.00000015c.00000008.552285.447715 1 1 1 .552285-.00000008 1-.447715 1-1v-11.86l4.36 3.63.00000006.00000005c.425259.353462 1.05654.295259 1.41-.13.353462-.425259.295259-1.05654-.13-1.41l-6-5-.15-.09-.13-.07-.00000004-.00000002c-.231675-.0893969-.488325-.0893969-.72-.00000002l-.13.07-.15.09-6 5-.00000011.00000009c-.42517.35249-.484088.982908-.131598 1.40808.00053187.00064153.00106454.0012824.00159801.0019226z"/></g></svg>