<svg viewBox="0 0 24 24" xmlns="http://www.w3.org/2000/svg"><path d="m19.453 13.2942-1.935-1.2944 1.935-1.2943m-6.6795 8.0754v-3.6076l3.3533-2.2427 2.7069 1.8104m-6.8336-.9113-2.73576-1.8299 2.73576-1.8298 2.7355 1.8298m-3.5091 6.7811-6.06029-4.0399 2.70716-1.8104 3.35313 2.2427m-6.67951-4.4678 1.93516 1.2943-1.93516 1.2944m6.67951-8.07546v3.60763l-3.35313 2.24313-2.70716-1.8109m7.60729-4.03986 6.0602 4.03986-2.7069 1.8109-3.3533-2.24313m8.2196.33046c-.0017-.01136-.0045-.02222-.0064-.03358-.0038-.02184-.0078-.04363-.0135-.06491-.0033-.01278-.0081-.02507-.012-.03736-.0062-.01899-.0124-.03792-.02-.05635-.0052-.01278-.0113-.02557-.0172-.03785-.0081-.01757-.0166-.03463-.0263-.05114-.0071-.01235-.0147-.0242-.022-.03599-.0104-.01614-.0211-.03178-.0328-.04692-.0084-.01136-.0174-.02271-.0264-.03364-.0123-.01415-.0251-.02836-.0386-.04164-.0101-.01036-.0202-.02079-.0308-.03028-.0142-.01278-.0288-.02513-.0438-.03693-.0115-.00899-.023-.01799-.035-.0265-.0045-.00285-.0085-.00664-.0128-.00949l-8.2265-5.48432c-.2598-.17326-.5982-.17326-.8581 0l-8.22647 5.48432c-.00428.00285-.00831.00664-.01278.00949-.0121.00851-.02346.01751-.03482.0265-.01514.0118-.02985.02415-.04375.03693-.01092.00949-.02085.01992-.03103.03028-.01346.01328-.02625.02749-.03835.04164-.00924.01093-.01824.02228-.02674.03364-.01136.01514-.02228.03078-.03246.04692-.00782.01179-.01514.02364-.02222.03599-.00949.01651-.01799.03357-.02631.05114-.0059.01228-.01204.02507-.01725.03785-.00757.01843-.01372.03736-.01992.05635-.00404.01229-.0085.02458-.01204.03736-.00571.02128-.0095.04307-.01353.06491-.00186.01136-.00472.02222-.00614.03358-.00453.03313-.00708.06677-.00708.10084v5.48433c0 .0341.00255.0677.00708.1013.00142.011.00428.0222.00614.0331.00403.0218.00782.0436.01353.0649.00354.0128.008.0251.01204.0374.0062.0189.01235.0379.01992.0568.00521.0129.01135.0252.01725.0374.00832.0175.01682.0345.02631.0516.00708.0119.0144.0237.02222.0355.01018.0161.0211.0318.03246.0469.0085.0119.0175.0227.02674.0336.0121.0142.02489.0284.03835.0417.01018.0104.02011.0208.03103.0302.0139.0129.02861.0252.04375.037.01136.0091.02272.018.03482.0265.00447.0029.0085.0067.01278.0094l8.22647 5.4844c.13.0867.2796.1302.4292.1302.1494 0 .2989-.0435.4289-.1302l8.2265-5.4844c.0043-.0027.0083-.0065.0128-.0094.012-.0085.0235-.0174.035-.0265.015-.0118.0296-.0241.0438-.037.0106-.0094.0207-.0198.0308-.0302.0135-.0133.0263-.0275.0386-.0417.009-.0109.018-.0217.0264-.0336.0117-.0151.0224-.0308.0328-.0469.0073-.0118.0149-.0236.022-.0355.0097-.0171.0182-.0341.0263-.0516.0059-.0122.012-.0245.0172-.0374.0076-.0189.0138-.0379.02-.0568.0039-.0123.0087-.0246.012-.0374.0057-.0213.0097-.0431.0135-.0649.0019-.0109.0047-.0221.0064-.0331.0042-.0336.0069-.0672.0069-.1013v-5.48433c0-.03407-.0027-.06771-.0069-.10084z" fill="#625e68"/></svg>