<svg width="250" height="376" viewBox="0 0 250 376" fill="none" xmlns="http://www.w3.org/2000/svg">
<rect width="250" height="376" fill="#242424"/>
<g opacity="0.05">
<path fill-rule="evenodd" clip-rule="evenodd" d="M118.825 180.327C132.222 183.301 145.494 174.852 148.468 161.454C151.442 148.057 142.993 134.786 129.595 131.811C116.198 128.837 102.927 137.287 99.9524 150.684C96.9782 164.081 105.428 177.353 118.825 180.327ZM114.086 201.671C139.272 207.262 164.221 191.378 169.812 166.193C175.403 141.008 159.519 116.058 134.334 110.467C109.149 104.876 84.1994 120.76 78.6082 145.945C73.0171 171.131 88.9012 196.08 114.086 201.671Z" fill="white"/>
<path d="M181.286 258.356C181.286 267.061 174.142 274.119 165.33 274.119C156.519 274.119 149.375 267.061 149.375 258.356C149.375 249.65 156.519 242.593 165.33 242.593C174.142 242.593 181.286 249.65 181.286 258.356Z" fill="white"/>
<path d="M101.078 223.642C101.896 218.03 107.402 214.187 113.376 215.057V215.057C119.351 215.928 123.531 221.183 122.713 226.794L117.073 265.511C116.255 271.122 110.749 274.965 104.775 274.095V274.095C98.8001 273.225 94.6197 267.97 95.4372 262.358L101.078 223.642Z" fill="white"/>
</g>
</svg>
