<svg width="250" height="376" viewBox="0 0 250 376" fill="none" xmlns="http://www.w3.org/2000/svg">
<rect width="250" height="376" fill="#242424"/>
<g opacity="0.1">
<path fill-rule="evenodd" clip-rule="evenodd" d="M118.825 212.983C132.222 215.958 145.494 207.508 148.468 194.111C151.442 180.714 142.993 167.442 129.595 164.468C116.198 161.494 102.927 169.943 99.9524 183.34C96.9782 196.738 105.428 210.009 118.825 212.983ZM114.086 234.328C139.272 239.919 164.221 224.035 169.812 198.849C175.403 173.664 159.519 148.715 134.334 143.124C109.149 137.533 84.1994 153.417 78.6082 178.602C73.0171 203.787 88.9012 228.736 114.086 234.328Z" fill="white"/>
<path d="M181.286 291.012C181.286 299.718 174.142 306.775 165.33 306.775C156.519 306.775 149.375 299.718 149.375 291.012C149.375 282.307 156.519 275.249 165.33 275.249C174.142 275.249 181.286 282.307 181.286 291.012Z" fill="white"/>
<path d="M101.078 256.298C101.896 250.687 107.402 246.843 113.376 247.714C119.351 248.584 123.531 253.839 122.713 259.451L117.073 298.167C116.255 303.779 110.749 307.622 104.775 306.751C98.8001 305.881 94.6197 300.626 95.4372 295.015L101.078 256.298Z" fill="white"/>
</g>
</svg>
