<svg width="37" height="18" viewBox="0 0 37 18" fill="none" xmlns="http://www.w3.org/2000/svg">
<path d="M7.632 9.69998C8.256 9.69998 8.744 9.89198 9.096 10.276C9.448 10.66 9.624 11.2 9.624 11.896V15.856C9.624 15.896 9.608 15.932 9.576 15.964C9.552 15.988 9.52 16 9.48 16H7.788C7.748 16 7.712 15.988 7.68 15.964C7.656 15.932 7.644 15.896 7.644 15.856V12.328C7.644 12.056 7.572 11.836 7.428 11.668C7.292 11.492 7.108 11.404 6.876 11.404C6.644 11.404 6.452 11.488 6.3 11.656C6.156 11.824 6.084 12.048 6.084 12.328V15.856C6.084 15.896 6.068 15.932 6.036 15.964C6.012 15.988 5.98 16 5.94 16H4.236C4.196 16 4.16 15.988 4.128 15.964C4.104 15.932 4.092 15.896 4.092 15.856V12.328C4.092 12.056 4.016 11.836 3.864 11.668C3.72 11.492 3.532 11.404 3.3 11.404C3.084 11.404 2.904 11.472 2.76 11.608C2.616 11.744 2.528 11.924 2.496 12.148V15.856C2.496 15.896 2.48 15.932 2.448 15.964C2.424 15.988 2.392 16 2.352 16H0.648C0.608 16 0.572 15.988 0.54 15.964C0.516 15.932 0.504 15.896 0.504 15.856V9.93998C0.504 9.89998 0.516 9.86798 0.54 9.84398C0.572 9.81198 0.608 9.79598 0.648 9.79598H2.352C2.392 9.79598 2.424 9.81198 2.448 9.84398C2.48 9.86798 2.496 9.89998 2.496 9.93998V10.48C2.496 10.512 2.504 10.532 2.52 10.54C2.536 10.54 2.552 10.524 2.568 10.492C2.88 9.96398 3.392 9.69998 4.104 9.69998C4.504 9.69998 4.856 9.78798 5.16 9.96398C5.464 10.14 5.696 10.396 5.856 10.732C5.88 10.78 5.904 10.776 5.928 10.72C6.096 10.376 6.324 10.12 6.612 9.95198C6.908 9.78398 7.248 9.69998 7.632 9.69998ZM13.4144 16.096C12.6944 16.096 12.0824 15.904 11.5784 15.52C11.0744 15.136 10.7384 14.616 10.5704 13.96C10.4744 13.632 10.4264 13.272 10.4264 12.88C10.4264 12.44 10.4784 12.052 10.5824 11.716C10.7664 11.084 11.1064 10.592 11.6024 10.24C12.1064 9.87998 12.7144 9.69998 13.4264 9.69998C14.1304 9.69998 14.7264 9.87998 15.2144 10.24C15.7024 10.592 16.0424 11.08 16.2344 11.704C16.3464 12.064 16.4024 12.448 16.4024 12.856C16.4024 13.224 16.3584 13.576 16.2704 13.912C16.1024 14.584 15.7664 15.116 15.2624 15.508C14.7584 15.9 14.1424 16.096 13.4144 16.096ZM13.4144 14.392C13.6464 14.392 13.8384 14.32 13.9904 14.176C14.1424 14.024 14.2544 13.82 14.3264 13.564C14.3744 13.356 14.3984 13.128 14.3984 12.88C14.3984 12.64 14.3704 12.408 14.3144 12.184C14.2504 11.936 14.1424 11.744 13.9904 11.608C13.8384 11.472 13.6464 11.404 13.4144 11.404C12.9504 11.404 12.6464 11.664 12.5024 12.184C12.4544 12.376 12.4304 12.608 12.4304 12.88C12.4304 13.128 12.4544 13.356 12.5024 13.564C12.5664 13.82 12.6744 14.024 12.8264 14.176C12.9864 14.32 13.1824 14.392 13.4144 14.392ZM18.6508 16C18.5708 16 18.5188 15.96 18.4948 15.88L16.6108 9.95198C16.6028 9.93598 16.5988 9.91598 16.5988 9.89198C16.5988 9.81998 16.6428 9.78398 16.7308 9.78398H18.6028C18.6908 9.78398 18.7468 9.82398 18.7708 9.90398L19.5628 13.204C19.5708 13.228 19.5828 13.24 19.5988 13.24C19.6148 13.24 19.6268 13.228 19.6348 13.204L20.4388 9.90398C20.4628 9.82398 20.5188 9.78398 20.6068 9.78398L22.4668 9.80798C22.5148 9.80798 22.5508 9.82398 22.5748 9.85598C22.5988 9.87998 22.6028 9.91998 22.5868 9.97598L20.7148 15.88C20.6908 15.96 20.6388 16 20.5588 16H18.6508Z" fill="#373737"/>
<path d="M33.252 12.352C33.292 12.592 33.304 12.908 33.288 13.3C33.28 13.396 33.228 13.444 33.132 13.444H29.472C29.456 13.444 29.44 13.452 29.424 13.468C29.408 13.476 29.404 13.488 29.412 13.504C29.428 13.592 29.468 13.708 29.532 13.852C29.628 14.02 29.772 14.156 29.964 14.26C30.156 14.364 30.392 14.416 30.672 14.416C31.176 14.416 31.572 14.252 31.86 13.924C31.892 13.884 31.928 13.864 31.968 13.864C32.008 13.864 32.04 13.88 32.064 13.912L32.988 14.968C33.02 14.992 33.036 15.024 33.036 15.064C33.036 15.096 33.02 15.128 32.988 15.16C32.708 15.464 32.36 15.696 31.944 15.856C31.536 16.016 31.088 16.096 30.6 16.096C29.872 16.096 29.252 15.94 28.74 15.628C28.236 15.308 27.872 14.864 27.648 14.296C27.48 13.896 27.396 13.396 27.396 12.796C27.396 12.38 27.46 11.98 27.588 11.596C27.796 11.004 28.136 10.54 28.608 10.204C29.088 9.85998 29.656 9.68798 30.312 9.68798C30.84 9.68798 31.312 9.80398 31.728 10.036C32.144 10.26 32.48 10.576 32.736 10.984C33 11.384 33.172 11.84 33.252 12.352ZM30.312 11.404C29.896 11.404 29.62 11.6 29.484 11.992C29.452 12.08 29.432 12.164 29.424 12.244C29.408 12.284 29.424 12.304 29.472 12.304H31.176C31.208 12.304 31.224 12.288 31.224 12.256C31.224 12.192 31.208 12.112 31.176 12.016C31.12 11.816 31.016 11.664 30.864 11.56C30.72 11.456 30.536 11.404 30.312 11.404Z" fill="#373737"/>
<circle cx="25.9649" cy="5.09752" r="3.27301" transform="rotate(12.5167 25.9649 5.09752)" stroke="#9225F0" stroke-width="2"/>
<circle cx="35.3906" cy="15.193" r="1" transform="rotate(12.5167 35.3906 15.193)" fill="#9225F0"/>
<rect x="24.0352" y="10.8317" width="2" height="5.81049" rx="1" transform="rotate(8.28937 24.0352 10.8317)" fill="#9225F0"/>
</svg>
